<svg xmlns="http://www.w3.org/2000/svg" xmlns:xlink="http://www.w3.org/1999/xlink" width="6912" zoomAndPan="magnify" viewBox="0 0 5184 2592.000001" height="3456" preserveAspectRatio="xMidYMid meet" version="1.0"><defs><clipPath id="44f45beb80"><path d="M 1555.601562 962 L 3628.550781 962 L 3628.550781 1667 L 1555.601562 1667 Z M 1555.601562 962 " clip-rule="nonzero"/></clipPath></defs><path fill="#ffffff" d="M 1 0 L 5183 0 L 5183 2591 L 1 2591 Z M 1 0 " fill-opacity="1" fill-rule="nonzero"/><path fill="#52d3d8" d="M 3340.089844 945.453125 C 3339.835938 945.582031 3339.835938 945.582031 3339.835938 945.582031 L 3338.046875 945.964844 L 3334.34375 947.625 L 3332.558594 948.644531 L 3328.597656 949.796875 L 3323.109375 951.328125 L 3320.300781 952.347656 C 3320.300781 952.347656 3318.128906 952.605469 3316.597656 952.988281 C 3315.191406 953.371094 3313.40625 954.007812 3313.40625 954.007812 L 3309.703125 955.539062 C 3309.703125 955.539062 3304.339844 957.457031 3301.65625 957.710938 C 3298.976562 957.964844 3291.570312 958.09375 3291.570312 958.09375 C 3291.570312 958.09375 3290.292969 957.839844 3288.507812 959.242188 C 3286.71875 960.519531 3283.527344 963.328125 3283.527344 963.328125 C 3283.527344 963.328125 3281.867188 965.371094 3281.230469 965.628906 C 3280.589844 965.882812 3277.910156 965.5 3277.652344 965.5 C 3277.269531 965.5 3274.972656 964.480469 3274.972656 964.480469 C 3273.441406 963.585938 3271.78125 961.414062 3271.015625 960.519531 C 3270.25 959.625 3267.183594 955.925781 3267.183594 955.925781 C 3267.183594 955.925781 3266.546875 955.285156 3266.289062 955.03125 C 3266.164062 954.773438 3263.480469 953.753906 3263.097656 953.753906 C 3262.714844 953.753906 3260.289062 952.730469 3259.777344 952.730469 L 3254.542969 951.328125 L 3254.03125 951.582031 L 3253.648438 951.710938 C 3253.648438 951.710938 3248.285156 953.625 3247.394531 953.753906 C 3246.371094 953.882812 3245.476562 951.839844 3245.476562 951.839844 C 3245.476562 951.839844 3245.605469 942.773438 3245.605469 942.007812 C 3245.605469 941.242188 3244.839844 939.324219 3244.199219 938.429688 C 3243.5625 937.539062 3244.199219 936.132812 3244.199219 936.132812 L 3249.4375 931.152344 C 3249.4375 931.152344 3253.394531 928.089844 3253.523438 927.960938 C 3253.648438 927.832031 3255.820312 925.535156 3255.820312 925.535156 L 3256.457031 925.535156 L 3258.628906 925.023438 L 3261.183594 924.769531 L 3261.566406 924.640625 L 3266.289062 924.386719 L 3268.84375 924.640625 C 3268.84375 924.640625 3270.757812 925.152344 3272.546875 925.917969 C 3272.546875 925.917969 3274.589844 926.941406 3274.84375 927.324219 C 3275.101562 927.578125 3275.992188 928.472656 3276.25 928.601562 C 3276.503906 928.601562 3277.398438 928.855469 3278.675781 928.34375 C 3279.953125 927.832031 3281.867188 927.578125 3282.507812 927.578125 C 3283.144531 927.707031 3285.1875 928.214844 3286.847656 928.984375 C 3288.507812 929.75 3288.761719 929.875 3288.761719 929.875 L 3289.144531 929.875 L 3291.953125 930.769531 C 3291.953125 930.769531 3296.167969 931.792969 3296.679688 931.917969 C 3297.1875 932.046875 3300.890625 932.6875 3300.890625 932.6875 L 3303.0625 933.195312 L 3305.488281 933.707031 L 3308.425781 934.855469 L 3316.085938 935.113281 L 3320.042969 935.367188 L 3321.195312 935.238281 C 3321.195312 935.238281 3326.683594 934.984375 3327.066406 935.113281 C 3327.578125 935.238281 3330.515625 935.75 3331.535156 936.386719 C 3332.558594 937.027344 3332.558594 937.027344 3332.558594 937.027344 L 3333.195312 937.410156 L 3340.984375 940.601562 C 3340.984375 940.601562 3343.539062 941.75 3344.050781 942.644531 C 3345.070312 944.050781 3340.472656 945.453125 3340.089844 945.453125 Z M 3340.089844 945.453125 " fill-opacity="1" fill-rule="nonzero"/><g clip-path="url(#44f45beb80)"><path fill="#52d3d8" d="M 2783.011719 1199.160156 L 2783.777344 1198.265625 L 2793.226562 1198.648438 L 2796.164062 1202.863281 L 2801.910156 1208.222656 L 2803.1875 1209.375 L 2810.082031 1208.734375 L 2812.890625 1207.714844 L 2813.402344 1205.542969 L 2814.039062 1202.734375 L 2807.144531 1195.457031 L 2807.144531 1194.050781 L 2813.015625 1197.117188 L 2814.167969 1192.136719 L 2818.890625 1184.601562 L 2827.828125 1184.601562 L 2831.785156 1182.6875 L 2834.722656 1185.242188 L 2836.636719 1191.113281 L 2837.53125 1187.285156 L 2837.53125 1183.453125 L 2840.722656 1180.644531 L 2846.085938 1178.984375 L 2853.75 1187.667969 L 2853.75 1194.179688 L 2855.535156 1198.777344 L 2858.34375 1199.542969 L 2863.453125 1188.304688 L 2863.453125 1182.175781 L 2865.367188 1178.347656 L 2870.472656 1175.921875 L 2876.09375 1175.921875 L 2880.304688 1177.835938 L 2888.222656 1181.027344 L 2892.054688 1183.199219 L 2894.222656 1184.476562 L 2896.90625 1187.027344 L 2902.523438 1187.15625 L 2903.925781 1186.902344 L 2907.628906 1190.859375 L 2908.652344 1190.988281 L 2912.992188 1188.304688 L 2914.523438 1188.179688 L 2916.3125 1188.5625 L 2918.867188 1188.6875 L 2920.269531 1189.199219 L 2921.929688 1188.304688 L 2923.972656 1186.902344 L 2925.25 1184.859375 L 2925.25 1183.070312 L 2926.78125 1178.601562 L 2927.546875 1175.15625 L 2927.546875 1170.046875 L 2925.503906 1168.515625 L 2921.417969 1170.8125 L 2918.992188 1171.578125 L 2913.886719 1171.324219 L 2910.4375 1170.558594 L 2907.246094 1169.28125 L 2905.332031 1165.960938 L 2904.4375 1159.066406 L 2899.714844 1160.726562 L 2890.519531 1164.558594 L 2882.605469 1167.875 L 2870.984375 1168.132812 L 2866.515625 1170.6875 L 2863.453125 1168.386719 L 2862.558594 1163.917969 L 2860.769531 1162.132812 L 2857.835938 1160.472656 L 2853.367188 1159.066406 L 2850.9375 1159.066406 L 2847.621094 1165.832031 L 2846.980469 1166.855469 L 2846.214844 1173.878906 L 2841.492188 1176.046875 L 2839.449219 1177.707031 L 2834.722656 1180.644531 L 2830.765625 1180.515625 L 2827.703125 1179.75 L 2831.019531 1174.773438 L 2832.425781 1170.8125 L 2834.722656 1165.832031 L 2839.957031 1157.917969 L 2835.746094 1151.277344 L 2836.382812 1147.066406 L 2840.980469 1148.722656 L 2844.683594 1150.257812 L 2846.851562 1150.765625 L 2848.511719 1151.152344 L 2852.980469 1151.023438 L 2853.621094 1149.617188 L 2854.003906 1149.109375 L 2855.40625 1148.980469 L 2855.917969 1149.746094 L 2858.726562 1149.617188 L 2862.046875 1150.511719 L 2864.089844 1151.660156 L 2867.410156 1153.320312 L 2870.21875 1154.214844 L 2874.945312 1154.34375 L 2876.984375 1154.851562 L 2886.433594 1154.726562 L 2888.09375 1154.34375 L 2892.308594 1152.808594 L 2897.542969 1150.765625 L 2901.117188 1147.066406 C 2901.117188 1147.066406 2901.5 1142.339844 2901.628906 1142.085938 L 2903.160156 1138.636719 L 2904.566406 1138.125 L 2908.78125 1137.234375 L 2910.695312 1130.210938 L 2910.824219 1117.570312 L 2912.226562 1116.164062 L 2913.121094 1116.164062 L 2914.78125 1117.1875 L 2916.183594 1118.464844 L 2920.015625 1118.335938 L 2924.101562 1113.355469 L 2926.527344 1112.972656 L 2932.785156 1113.996094 L 2941.722656 1119.230469 L 2948.617188 1117.441406 L 2954.105469 1121.273438 L 2964.578125 1121.402344 L 2967.386719 1118.847656 L 2969.046875 1115.527344 L 2969.9375 1113.484375 L 2969.9375 1107.355469 L 2971.214844 1105.824219 L 2975.8125 1107.101562 L 2978.367188 1108.375 C 2978.367188 1108.375 2980.410156 1109.015625 2980.664062 1109.015625 C 2980.917969 1109.015625 2983.21875 1109.910156 2983.21875 1109.910156 L 2985.261719 1111.1875 L 2991.390625 1113.738281 C 2991.390625 1113.738281 2992.921875 1113.230469 2993.175781 1113.101562 C 2993.433594 1112.972656 2994.964844 1112.207031 2994.964844 1112.207031 L 2995.988281 1113.996094 L 2995.988281 1115.78125 L 2990.75 1116.164062 L 2990.113281 1116.675781 L 2985.773438 1116.804688 L 2986.792969 1118.082031 L 2988.453125 1118.972656 L 2987.558594 1121.015625 L 2986.921875 1123.441406 L 2989.730469 1127.273438 L 2992.539062 1122.675781 L 2993.6875 1120.632812 L 2995.859375 1120.507812 L 2997.136719 1121.273438 L 2997.902344 1121.527344 L 2998.667969 1121.910156 L 2999.179688 1123.1875 L 2998.15625 1125.230469 L 2997.773438 1127.65625 L 3002.753906 1123.058594 L 3002.753906 1120.632812 L 3001.730469 1117.1875 L 2997.902344 1112.460938 L 3013.097656 1112.335938 L 3023.820312 1115.273438 L 3035.949219 1117.1875 L 3041.570312 1119.359375 L 3043.101562 1119.484375 L 3052.804688 1119.230469 L 3058.296875 1115.273438 L 3061.871094 1110.546875 L 3065.316406 1104.800781 C 3065.316406 1104.800781 3065.957031 1102.757812 3065.957031 1102.246094 C 3065.957031 1101.738281 3064.550781 1098.929688 3064.550781 1098.929688 L 3065.0625 1096.375 L 3065.957031 1095.734375 L 3068 1097.140625 C 3068 1097.140625 3069.148438 1097.011719 3069.660156 1096.757812 C 3070.171875 1096.503906 3071.703125 1096.246094 3071.703125 1096.246094 L 3073.488281 1095.734375 L 3076.171875 1093.308594 L 3076.042969 1092.417969 L 3076.296875 1090.5 L 3075.789062 1088.585938 L 3072.851562 1087.308594 L 3075.914062 1082.710938 L 3077.703125 1082.710938 L 3077.703125 1094.460938 L 3078.980469 1095.226562 L 3080 1098.035156 L 3084.46875 1100.714844 L 3087.664062 1102.632812 L 3088.9375 1102.757812 L 3104.261719 1106.84375 L 3105.664062 1107.355469 L 3116.136719 1107.355469 L 3125.328125 1105.695312 C 3125.328125 1105.695312 3126.222656 1106.207031 3126.476562 1106.460938 C 3126.734375 1106.589844 3133.882812 1111.058594 3133.882812 1111.058594 L 3137.074219 1115.273438 L 3141.925781 1118.589844 L 3150.480469 1122.933594 L 3159.421875 1122.804688 L 3162.867188 1120.890625 L 3163.632812 1120.890625 L 3164.273438 1121.65625 L 3165.675781 1121.65625 L 3168.101562 1123.058594 L 3170.910156 1124.210938 L 3179.722656 1124.335938 L 3182.914062 1122.039062 L 3187.128906 1115.527344 L 3192.488281 1119.867188 L 3196.066406 1121.785156 L 3197.597656 1122.421875 C 3197.597656 1122.421875 3200.277344 1122.421875 3200.535156 1122.421875 C 3200.789062 1122.421875 3209.597656 1124.210938 3209.597656 1124.210938 L 3216.238281 1124.335938 L 3220.835938 1121.910156 L 3222.496094 1115.527344 L 3226.582031 1109.78125 L 3227.601562 1109.652344 L 3239.222656 1120.125 L 3244.199219 1121.785156 L 3246.882812 1122.675781 L 3253.648438 1122.933594 L 3261.566406 1119.484375 L 3264.246094 1118.847656 L 3265.78125 1118.847656 L 3267.820312 1120.378906 L 3271.523438 1122.421875 L 3280.972656 1122.292969 L 3285.824219 1122.421875 L 3290.039062 1122.421875 L 3293.613281 1122.039062 L 3294.890625 1121.273438 L 3313.53125 1109.015625 L 3316.339844 1109.269531 L 3318.382812 1110.164062 L 3320.171875 1110.292969 L 3323.238281 1110.292969 L 3324.128906 1111.570312 L 3325.535156 1113.101562 L 3326.429688 1113.738281 L 3327.960938 1114.632812 L 3330.132812 1115.273438 L 3333.066406 1116.039062 L 3334.726562 1116.421875 L 3339.835938 1111.3125 L 3340.472656 1110.546875 L 3341.878906 1110.675781 C 3342.515625 1111.3125 3342.515625 1111.3125 3342.515625 1111.3125 L 3343.28125 1112.589844 L 3344.175781 1115.78125 L 3344.175781 1116.421875 L 3345.324219 1121.785156 C 3345.324219 1121.785156 3348.132812 1125.230469 3348.132812 1125.613281 C 3348.132812 1125.996094 3348.132812 1125.996094 3348.132812 1125.996094 L 3348.132812 1132.890625 L 3359.113281 1140.554688 L 3372.777344 1147.191406 L 3384.90625 1151.277344 L 3394.355469 1152.683594 L 3405.847656 1152.683594 L 3412.484375 1149.875 L 3414.144531 1147.574219 L 3414.144531 1136.210938 L 3422.957031 1135.828125 L 3426.148438 1139.019531 L 3432.148438 1139.402344 L 3434.957031 1138.382812 L 3446.320312 1138.253906 L 3454.75 1142.597656 L 3464.453125 1141.703125 L 3474.15625 1133.273438 L 3479.519531 1131.871094 L 3482.710938 1131.871094 L 3488.585938 1128.933594 L 3490.5 1127.785156 L 3490.5 1126.636719 L 3493.949219 1126.125 L 3499.691406 1125.613281 L 3505.3125 1124.464844 L 3511.183594 1120.507812 L 3514.25 1117.441406 L 3515.015625 1114.761719 L 3516.035156 1110.804688 C 3516.035156 1110.804688 3514.886719 1108.632812 3514.886719 1108.25 C 3514.886719 1107.867188 3516.035156 1106.460938 3516.035156 1106.460938 L 3518.84375 1104.929688 L 3520.121094 1104.929688 L 3523.824219 1110.804688 L 3528.933594 1115.910156 L 3531.996094 1116.929688 L 3540.296875 1123.1875 L 3551.914062 1123.1875 L 3562.894531 1121.910156 L 3564.8125 1120.632812 L 3569.023438 1116.039062 L 3572.089844 1116.675781 L 3576.941406 1120.378906 L 3585.75 1128.933594 L 3591.753906 1133.65625 L 3604.394531 1133.65625 L 3609.628906 1136.210938 L 3615.5 1135.0625 L 3619.203125 1136.210938 L 3623.929688 1142.210938 L 3624.054688 1145.40625 L 3628.398438 1149.492188 L 3623.035156 1152.9375 L 3616.90625 1155.363281 L 3616.140625 1158.300781 L 3614.992188 1164.300781 L 3611.03125 1168.769531 L 3611.03125 1173.496094 L 3607.585938 1173.367188 C 3607.585938 1173.367188 3604.777344 1171.835938 3603.242188 1171.324219 C 3601.710938 1170.8125 3598.007812 1171.324219 3598.007812 1171.324219 L 3593.15625 1174.515625 L 3587.667969 1178.472656 L 3584.984375 1182.304688 L 3576.046875 1190.09375 L 3566.980469 1196.988281 L 3565.449219 1199.414062 L 3564.9375 1203.882812 L 3562.769531 1206.691406 L 3555.492188 1208.351562 L 3552.171875 1210.90625 L 3545.914062 1211.160156 L 3547.703125 1206.054688 L 3542.722656 1201.074219 L 3530.976562 1201.074219 L 3513.484375 1209.757812 L 3508.632812 1210.90625 L 3504.929688 1211.800781 L 3502.757812 1214.609375 L 3501.351562 1215.375 L 3500.203125 1214.609375 L 3498.417969 1214.226562 L 3496.628906 1212.054688 L 3482.96875 1201.839844 L 3453.34375 1202.863281 L 3450.40625 1204.011719 C 3450.40625 1204.011719 3445.171875 1203.882812 3444.535156 1204.011719 C 3443.894531 1204.136719 3438.023438 1203.882812 3437.640625 1204.011719 C 3437.128906 1204.136719 3435.980469 1205.160156 3435.980469 1205.160156 L 3429.085938 1212.054688 L 3413.890625 1212.949219 L 3406.230469 1209.246094 L 3399.460938 1209.246094 L 3390.398438 1218.4375 L 3388.863281 1221.121094 L 3384.652344 1230.570312 L 3378.140625 1243.335938 L 3373.160156 1249.847656 L 3364.605469 1260.828125 L 3358.859375 1267.722656 L 3358.09375 1272.320312 L 3356.945312 1278.578125 L 3356.945312 1281.386719 L 3353.753906 1283.175781 L 3353.753906 1291.984375 L 3350.6875 1291.472656 L 3349.792969 1288.664062 L 3346.21875 1283.300781 L 3343.539062 1281.257812 C 3343.539062 1281.257812 3337.664062 1278.578125 3335.621094 1278.449219 C 3333.578125 1278.320312 3326.300781 1278.578125 3326.300781 1278.578125 L 3321.320312 1279.855469 L 3318.128906 1281.003906 L 3314.808594 1280.875 L 3311.234375 1279.980469 L 3309.0625 1279.980469 L 3307.402344 1280.492188 C 3307.402344 1280.492188 3299.230469 1284.707031 3297.316406 1286.238281 C 3295.402344 1287.644531 3285.570312 1298.625 3285.570312 1298.625 L 3284.546875 1302.453125 L 3275.226562 1303.21875 C 3275.226562 1303.21875 3272.417969 1304.753906 3272.164062 1304.878906 C 3271.90625 1305.007812 3270.246094 1305.136719 3270.246094 1305.136719 L 3266.160156 1304.878906 L 3264.503906 1302.453125 L 3255.179688 1302.453125 L 3248.03125 1309.347656 C 3248.03125 1309.347656 3246.5 1311.902344 3246.371094 1312.15625 C 3246.242188 1312.414062 3244.710938 1315.476562 3244.710938 1315.476562 C 3244.710938 1315.476562 3241.773438 1314.582031 3241.136719 1314.199219 C 3240.496094 1313.816406 3233.984375 1315.09375 3233.984375 1315.09375 C 3233.984375 1315.09375 3228.878906 1317.136719 3227.730469 1317.519531 C 3226.582031 1317.902344 3216.875 1325.308594 3216.109375 1326.714844 C 3215.214844 1328.117188 3210.238281 1335.652344 3209.980469 1335.777344 C 3209.726562 1335.90625 3205.769531 1342.929688 3205.769531 1342.929688 L 3203.34375 1348.292969 L 3197.085938 1352.25 C 3197.085938 1352.25 3190.191406 1356.847656 3186.871094 1359.273438 L 3182.402344 1361.058594 L 3179.464844 1362.71875 L 3177.421875 1363.742188 L 3173.082031 1363.871094 L 3169.890625 1364.253906 L 3166.1875 1363.742188 L 3162.992188 1362.847656 L 3154.566406 1357.613281 L 3148.054688 1356.335938 L 3145.375 1356.464844 L 3138.863281 1355.953125 L 3132.09375 1355.058594 L 3127.625 1352.25 L 3117.921875 1351.738281 L 3109.113281 1351.613281 L 3104.898438 1351.484375 L 3103.238281 1351.867188 L 3100.046875 1353.015625 L 3097.621094 1352.761719 L 3094.8125 1350.207031 L 3094.300781 1349.695312 L 3096.726562 1345.484375 L 3096.726562 1344.972656 L 3086.257812 1335.140625 L 3077.574219 1327.609375 L 3074.382812 1325.566406 L 3072.722656 1324.925781 L 3071.699219 1325.4375 L 3069.148438 1326.332031 L 3067.871094 1326.839844 L 3065.445312 1326.839844 L 3062.636719 1326.332031 L 3060.210938 1326.332031 L 3051.527344 1332.460938 L 3048.335938 1337.695312 L 3046.546875 1346.632812 L 3045.527344 1350.335938 C 3045.527344 1350.335938 3045.269531 1351.355469 3045.269531 1351.996094 C 3045.269531 1352.632812 3046.164062 1362.59375 3046.164062 1362.59375 L 3043.355469 1364.378906 L 3043.226562 1368.976562 L 3048.589844 1369.359375 L 3059.953125 1360.675781 L 3068.253906 1360.167969 L 3067.871094 1359.144531 L 3065.828125 1356.972656 L 3067.613281 1353.910156 L 3070.933594 1353.910156 L 3076.808594 1355.1875 L 3095.578125 1353.910156 L 3080.765625 1360.550781 L 3066.210938 1364.890625 L 3061.867188 1366.167969 L 3053.1875 1370 L 3049.738281 1371.785156 L 3039.398438 1376.765625 L 3034.035156 1379.320312 L 3032.757812 1381.105469 C 3032.757812 1381.105469 3031.097656 1383.148438 3031.097656 1383.40625 C 3030.96875 1383.660156 3029.4375 1385.320312 3029.4375 1385.320312 C 3029.4375 1385.320312 3024.839844 1390.042969 3023.308594 1391.320312 C 3021.777344 1392.597656 3020.5 1397.066406 3020.5 1397.066406 C 3020.5 1397.066406 3019.988281 1400.386719 3019.734375 1400.640625 C 3019.480469 1400.898438 3019.734375 1411.496094 3019.734375 1411.496094 L 3019.734375 1413.664062 L 3018.074219 1415.199219 L 3016.414062 1416.21875 C 3016.414062 1416.21875 3014.5 1416.730469 3014.242188 1416.859375 C 3013.988281 1416.984375 3011.5625 1417.367188 3011.5625 1417.367188 L 3000.070312 1418.390625 L 2995.984375 1420.558594 L 2994.453125 1420.050781 L 2992.027344 1418.773438 L 2990.238281 1415.324219 L 2985.769531 1412.898438 L 2982.960938 1412.003906 L 2976.066406 1412.003906 L 2974.917969 1413.15625 L 2969.9375 1416.984375 C 2969.9375 1416.984375 2969.042969 1416.859375 2968.660156 1416.859375 C 2968.40625 1416.859375 2967.382812 1416.089844 2967.382812 1416.089844 L 2966.105469 1415.582031 L 2963.808594 1416.21875 L 2955.253906 1416.21875 L 2951.550781 1419.15625 L 2951.039062 1422.601562 L 2946.445312 1423.496094 L 2945.167969 1424.007812 L 2942.230469 1424.902344 L 2935.464844 1427.710938 L 2933.421875 1428.605469 L 2926.78125 1432.945312 L 2924.738281 1435.117188 L 2923.332031 1436.136719 C 2923.332031 1436.136719 2922.441406 1436.011719 2922.058594 1436.011719 C 2921.671875 1436.011719 2920.78125 1435.5 2920.78125 1435.5 L 2919.121094 1434.351562 L 2914.90625 1431.03125 L 2908.011719 1431.03125 L 2905.839844 1432.308594 L 2900.859375 1434.351562 L 2896.648438 1436.394531 C 2896.648438 1436.394531 2894.605469 1437.414062 2894.605469 1437.667969 C 2894.476562 1437.925781 2892.816406 1439.328125 2892.816406 1439.328125 L 2892.816406 1450.183594 L 2891.539062 1452.992188 L 2886.816406 1457.589844 L 2884.902344 1459.503906 L 2882.601562 1459.757812 L 2879.410156 1459.632812 L 2878.773438 1460.90625 L 2871.238281 1461.292969 L 2866.386719 1464.101562 L 2860.511719 1466.269531 L 2852.339844 1466.78125 L 2850.554688 1468.441406 L 2848.765625 1469.460938 L 2844.042969 1469.71875 L 2839.699219 1470.484375 L 2837.53125 1468.953125 L 2831.144531 1464.738281 L 2825.785156 1464.355469 L 2823.742188 1463.71875 L 2819.144531 1463.972656 L 2813.269531 1466.015625 C 2813.269531 1466.015625 2804.332031 1471.632812 2803.4375 1472.273438 C 2802.289062 1473.164062 2795.90625 1480.828125 2795.90625 1480.828125 L 2793.863281 1480.445312 L 2786.714844 1480.953125 L 2784.796875 1483.125 L 2780.585938 1482.359375 L 2782.117188 1478.785156 L 2781.351562 1476.359375 L 2779.308594 1474.570312 L 2777.265625 1471.378906 L 2773.945312 1469.335938 L 2771.136719 1468.824219 L 2768.582031 1469.335938 C 2768.582031 1469.335938 2766.410156 1470.230469 2766.027344 1470.355469 C 2765.644531 1470.484375 2762.199219 1471.121094 2761.941406 1471.25 C 2761.6875 1471.378906 2758.878906 1471.632812 2758.878906 1471.632812 L 2756.453125 1472.015625 L 2752.75 1472.527344 L 2750.066406 1473.421875 L 2745.472656 1475.976562 L 2735 1483.507812 L 2726.0625 1491.425781 L 2722.617188 1492.699219 L 2718.148438 1494.617188 L 2713.039062 1496.914062 L 2707.675781 1499.339844 L 2703.976562 1501.382812 L 2697.078125 1506.492188 L 2696.3125 1507.769531 L 2696.058594 1511.46875 L 2695.164062 1511.726562 L 2695.164062 1514.152344 L 2694.398438 1514.664062 L 2691.589844 1514.917969 L 2687.886719 1512.238281 L 2679.714844 1505.339844 L 2677.160156 1504.574219 L 2673.074219 1501 L 2671.671875 1498.828125 L 2662.734375 1494.359375 L 2652.394531 1489.125 L 2648.816406 1486.699219 L 2646.519531 1485.679688 L 2642.6875 1484.785156 L 2631.199219 1479.167969 L 2626.601562 1478.402344 L 2622.769531 1477.890625 L 2618.941406 1477.125 L 2610.640625 1476.996094 C 2610.640625 1476.996094 2608.851562 1476.613281 2608.46875 1476.359375 C 2608.085938 1476.101562 2606.808594 1474.1875 2606.808594 1474.1875 L 2598 1474.1875 L 2593.785156 1476.230469 L 2587.148438 1476.484375 L 2581.65625 1479.675781 L 2570.929688 1486.957031 L 2565.953125 1490.019531 L 2561.738281 1494.105469 L 2557.140625 1498.703125 L 2555.738281 1499.980469 L 2554.84375 1500.363281 L 2554.84375 1524.621094 L 2539.648438 1534.324219 L 2539.265625 1535.859375 L 2537.09375 1535.859375 C 2537.09375 1535.859375 2536.96875 1537.773438 2536.96875 1538.027344 C 2536.96875 1538.15625 2537.480469 1539.6875 2537.605469 1540.328125 C 2537.734375 1540.835938 2537.863281 1543.519531 2537.863281 1543.519531 C 2537.863281 1543.519531 2537.863281 1543.519531 2537.988281 1543.773438 C 2538.117188 1544.03125 2538.628906 1546.074219 2538.628906 1546.074219 L 2539.394531 1547.222656 L 2553.695312 1576.972656 L 2554.203125 1578.503906 L 2553.4375 1578.503906 L 2552.035156 1579.78125 L 2535.691406 1546.964844 L 2534.796875 1540.582031 L 2534.160156 1537.261719 L 2534.160156 1535.859375 L 2535.308594 1535.089844 L 2532.882812 1520.917969 L 2529.179688 1505.339844 L 2522.285156 1492.0625 L 2520.625 1491.808594 L 2518.835938 1492.574219 L 2515.644531 1493.976562 L 2512.707031 1495.636719 C 2512.707031 1495.636719 2511.304688 1496.660156 2510.410156 1497.042969 C 2509.515625 1497.425781 2509.132812 1499.214844 2509.132812 1499.214844 L 2508.238281 1499.214844 L 2507.089844 1498.320312 L 2506.070312 1498.703125 C 2506.070312 1498.703125 2503.386719 1499.851562 2503.132812 1500.234375 C 2502.875 1500.617188 2499.8125 1501.382812 2499.8125 1501.382812 L 2499.8125 1504.066406 L 2522.027344 1549.519531 L 2515.773438 1552.839844 L 2491.128906 1498.0625 L 2489.085938 1498.957031 L 2467.382812 1509.8125 L 2483.597656 1544.414062 L 2483.597656 1548.117188 L 2482.957031 1548.242188 L 2478.488281 1550.414062 L 2471.59375 1535.984375 L 2470.316406 1535.984375 L 2463.039062 1521.300781 L 2459.335938 1520.917969 L 2457.167969 1511.597656 L 2453.207031 1512.238281 L 2451.039062 1512.238281 L 2447.335938 1512.875 L 2444.78125 1513.894531 L 2444.269531 1510.832031 L 2441.589844 1510.960938 L 2440.824219 1512.238281 L 2439.546875 1514.40625 L 2434.3125 1516.449219 L 2430.226562 1518.492188 L 2426.523438 1521.046875 L 2422.4375 1524.496094 L 2422.691406 1526.664062 L 2427.925781 1536.496094 L 2424.605469 1539.050781 L 2424.222656 1540.710938 L 2426.394531 1546.328125 L 2425.117188 1546.839844 L 2423.457031 1547.222656 L 2421.542969 1547.347656 L 2418.476562 1542.625 L 2417.457031 1540.070312 L 2417.328125 1537.132812 L 2417.96875 1536.496094 L 2413.625 1532.792969 L 2412.347656 1535.984375 L 2409.03125 1532.410156 L 2407.242188 1528.324219 L 2399.582031 1513.257812 L 2394.21875 1506.746094 L 2393.707031 1504.957031 L 2389.621094 1498.828125 L 2393.195312 1492.957031 L 2393.324219 1490.914062 L 2391.921875 1482.996094 L 2388.984375 1470.101562 L 2388.089844 1466.144531 L 2381.707031 1461.292969 L 2378.898438 1460.652344 L 2378.128906 1461.164062 L 2386.429688 1466.652344 L 2387.835938 1472.144531 L 2390.644531 1486.1875 L 2391.921875 1491.550781 L 2390.644531 1493.851562 L 2388.984375 1496.660156 L 2381.449219 1484.785156 L 2375.703125 1473.421875 L 2381.578125 1473.546875 C 2381.578125 1473.546875 2381.578125 1468.1875 2381.324219 1468.3125 C 2381.066406 1468.441406 2375.320312 1466.910156 2375.320312 1466.910156 L 2374.171875 1466.144531 L 2372.894531 1463.589844 L 2369.957031 1456.824219 L 2366.511719 1445.332031 L 2364.597656 1443.414062 L 2362.808594 1444.054688 L 2362.042969 1444.054688 L 2359.488281 1445.714844 L 2360.765625 1449.925781 L 2363.957031 1457.714844 L 2363.574219 1459.375 L 2359.488281 1462.824219 C 2359.488281 1462.824219 2359.488281 1462.824219 2359.488281 1463.335938 C 2359.488281 1463.84375 2359.359375 1466.269531 2359.234375 1466.527344 C 2359.105469 1466.78125 2358.59375 1467.804688 2358.46875 1468.1875 C 2358.339844 1468.570312 2356.425781 1472.910156 2356.425781 1472.910156 L 2355.914062 1474.699219 L 2357.0625 1483.890625 L 2364.597656 1491.296875 L 2368.554688 1492.828125 L 2378.769531 1495.128906 L 2381.449219 1499.085938 L 2381.578125 1500.488281 L 2381.578125 1501.894531 L 2380.8125 1503.171875 L 2380.941406 1504.449219 L 2383.367188 1504.449219 L 2391.539062 1518.367188 L 2401.496094 1535.089844 L 2400.984375 1540.453125 C 2400.984375 1540.453125 2404.050781 1543.007812 2404.304688 1543.136719 C 2404.5625 1543.261719 2404.6875 1551.5625 2404.6875 1551.5625 L 2405.835938 1553.988281 L 2406.476562 1555.777344 L 2407.113281 1556.925781 L 2407.113281 1558.585938 L 2404.5625 1558.585938 L 2400.476562 1565.863281 L 2399.835938 1567.394531 L 2397.792969 1567.652344 L 2397.792969 1566.757812 L 2396.261719 1565.609375 C 2396.261719 1565.609375 2396.261719 1565.609375 2396.132812 1565.609375 C 2396.007812 1565.609375 2394.472656 1564.84375 2394.472656 1564.84375 L 2391.28125 1564.457031 L 2388.601562 1563.691406 L 2384.515625 1562.03125 L 2380.300781 1560.246094 L 2375.960938 1558.457031 L 2369.574219 1555.011719 L 2368.042969 1554.371094 L 2366.765625 1553.476562 L 2361.402344 1553.222656 L 2356.550781 1550.285156 L 2356.550781 1547.988281 L 2355.660156 1546.710938 L 2353.617188 1545.179688 L 2351.0625 1543.519531 L 2347.871094 1540.328125 L 2345.699219 1539.433594 L 2341.867188 1537.644531 L 2338.550781 1537.773438 L 2337.910156 1537.132812 L 2336.25 1536.367188 L 2334.464844 1536.113281 L 2329.226562 1532.027344 L 2322.332031 1528.578125 L 2319.90625 1527.429688 L 2317.738281 1526.792969 L 2315.695312 1526.664062 L 2314.800781 1527.429688 L 2312.882812 1531.644531 L 2310.203125 1535.089844 L 2308.542969 1536.242188 L 2305.097656 1536.496094 L 2304.585938 1540.710938 L 2302.925781 1540.964844 L 2301.265625 1540.070312 C 2301.265625 1540.070312 2301.136719 1531.390625 2301.777344 1530.238281 C 2302.414062 1529.089844 2303.054688 1526.027344 2303.054688 1526.027344 L 2301.265625 1524.75 L 2300.117188 1524.367188 C 2300.117188 1524.367188 2299.222656 1524.496094 2298.457031 1524.621094 C 2297.5625 1524.75 2297.179688 1524.878906 2297.179688 1524.878906 C 2297.179688 1524.878906 2294.371094 1525.003906 2293.988281 1524.878906 C 2293.730469 1524.75 2292.074219 1524.109375 2292.074219 1524.109375 L 2289.519531 1521.683594 L 2288.113281 1521.683594 L 2286.070312 1523.34375 L 2281.601562 1523.984375 L 2268.195312 1530.75 L 2267.300781 1532.539062 L 2266.535156 1532.539062 L 2262.324219 1529.21875 L 2260.535156 1527.941406 L 2255.9375 1526.535156 L 2252.875 1526.921875 L 2251.597656 1526.921875 L 2247.765625 1527.941406 L 2239.851562 1531.773438 L 2231.933594 1537.773438 L 2226.445312 1542.242188 L 2222.613281 1543.773438 L 2221.335938 1544.285156 L 2220.441406 1543.007812 L 2218.398438 1542.371094 L 2217.121094 1543.007812 L 2212.144531 1543.644531 L 2211.632812 1542.625 L 2206.78125 1542.496094 L 2205.886719 1543.136719 L 2204.355469 1543.136719 L 2203.078125 1543.644531 L 2201.289062 1544.15625 L 2199.628906 1544.667969 L 2195.417969 1544.667969 L 2194.652344 1544.539062 L 2192.992188 1544.15625 L 2191.585938 1544.15625 L 2189.542969 1543.007812 L 2186.734375 1541.730469 L 2184.691406 1540.835938 L 2182.777344 1539.945312 L 2167.835938 1539.945312 L 2165.792969 1540.710938 L 2165.285156 1541.730469 L 2164.132812 1545.179688 L 2162.347656 1545.6875 L 2160.304688 1546.964844 L 2155.324219 1549.390625 L 2153.921875 1550.03125 L 2144.726562 1550.03125 L 2140.003906 1550.667969 L 2134.128906 1551.816406 L 2131.832031 1555.265625 L 2130.042969 1555.265625 L 2128.382812 1555.902344 C 2128.382812 1555.902344 2124.808594 1555.777344 2124.554688 1555.902344 C 2124.296875 1556.03125 2122.894531 1556.671875 2122.894531 1556.671875 L 2116.890625 1563.183594 L 2113.0625 1565.097656 L 2108.59375 1567.140625 L 2104.632812 1569.054688 L 2100.039062 1569.566406 L 2095.824219 1569.054688 L 2090.84375 1572.503906 L 2087.652344 1572.503906 L 2087.652344 1571.992188 L 2084.332031 1571.992188 L 2077.566406 1575.4375 L 2067.734375 1575.4375 L 2065.308594 1576.207031 L 2061.988281 1578.121094 L 2057.007812 1581.695312 L 2052.796875 1589.230469 L 2050.113281 1589.738281 L 2049.09375 1587.953125 L 2047.5625 1586.292969 L 2045.644531 1585.015625 L 2044.496094 1585.144531 L 2043.859375 1585.398438 L 2038.878906 1585.652344 L 2035.046875 1589.101562 L 2033.769531 1588.972656 L 2030.960938 1587.695312 L 2029.558594 1587.570312 L 2027.515625 1587.058594 L 2026.367188 1587.695312 L 2017.683594 1593.316406 C 2017.683594 1593.316406 2016.40625 1593.824219 2015.511719 1594.207031 C 2014.617188 1594.59375 2012.320312 1595.484375 2012.320312 1595.484375 L 2006.0625 1600.464844 C 2006.0625 1600.464844 2004.402344 1604.039062 2004.402344 1604.421875 C 2004.277344 1604.804688 2003.511719 1606.464844 2002.488281 1606.847656 C 2001.46875 1607.234375 1997.382812 1609.277344 1997.382812 1609.277344 L 1994.957031 1609.914062 L 1989.335938 1613.746094 L 1986.144531 1615.789062 L 1982.570312 1615.789062 L 1982.058594 1612.851562 L 1975.929688 1612.976562 L 1974.652344 1613.359375 L 1970.566406 1616.425781 L 1959.714844 1626.894531 L 1958.054688 1627.660156 L 1954.226562 1628.429688 L 1950.140625 1630.214844 L 1947.714844 1620.382812 L 1947.203125 1616.554688 L 1947.585938 1611.574219 L 1948.863281 1609.660156 L 1948.097656 1605.0625 L 1945.414062 1598.167969 L 1942.988281 1596.507812 L 1940.5625 1594.464844 L 1939.03125 1589.996094 L 1936.730469 1587.953125 L 1930.859375 1585.144531 L 1920.773438 1581.953125 L 1906.472656 1581.953125 L 1904.9375 1582.71875 L 1881.445312 1582.71875 L 1879.402344 1583.355469 L 1855.652344 1583.355469 L 1852.71875 1585.398438 L 1847.226562 1586.804688 L 1844.671875 1588.464844 L 1841.226562 1591.273438 L 1833.691406 1591.398438 L 1831.90625 1591.015625 L 1828.710938 1590.378906 L 1827.5625 1590.25 L 1826.414062 1590.25 L 1824.371094 1591.527344 L 1821.5625 1592.804688 L 1819.902344 1593.699219 L 1818.242188 1593.570312 L 1817.347656 1593.058594 L 1813.007812 1591.65625 L 1809.175781 1591.398438 L 1807.902344 1591.78125 L 1806.75 1592.292969 L 1804.070312 1592.933594 L 1802.28125 1592.933594 L 1797.6875 1589.355469 L 1795.644531 1588.71875 L 1787.34375 1588.335938 L 1786.195312 1587.824219 L 1782.746094 1586.804688 L 1781.46875 1586.292969 L 1779.042969 1586.292969 L 1778.535156 1586.929688 L 1775.851562 1586.929688 L 1765.125 1587.441406 L 1760.53125 1589.484375 L 1754.914062 1592.675781 L 1752.871094 1593.699219 L 1751.59375 1593.570312 L 1747.507812 1591.78125 L 1737.804688 1592.550781 L 1730.652344 1596.761719 L 1724.011719 1598.550781 L 1713.542969 1599.570312 L 1707.03125 1602.378906 L 1704.734375 1600.59375 L 1700.902344 1597.402344 L 1688.261719 1597.144531 L 1684.304688 1593.953125 L 1681.496094 1593.058594 L 1679.070312 1592.550781 C 1679.070312 1592.550781 1676.132812 1592.292969 1674.855469 1592.550781 C 1673.578125 1592.804688 1669.75 1593.441406 1669.75 1593.441406 L 1665.917969 1595.867188 L 1657.875 1601.359375 L 1651.363281 1605.828125 L 1645.742188 1608.382812 L 1642.808594 1610.808594 C 1642.808594 1610.808594 1629.785156 1620 1629.398438 1619.871094 C 1629.015625 1619.746094 1623.527344 1623.703125 1623.527344 1623.703125 L 1619.441406 1628.425781 L 1617.652344 1629.832031 L 1615.226562 1631.492188 L 1610.375 1634.941406 L 1608.207031 1636.597656 L 1604.246094 1638.386719 L 1600.417969 1640.300781 L 1594.796875 1645.027344 C 1594.796875 1645.027344 1588.285156 1650.007812 1587.902344 1650.390625 C 1587.519531 1650.773438 1581.519531 1656.902344 1581.007812 1657.285156 C 1580.496094 1657.792969 1576.539062 1662.390625 1576.539062 1662.390625 L 1573.984375 1666.605469 L 1569.132812 1666.605469 L 1569.644531 1661.753906 L 1567.347656 1656.007812 L 1565.6875 1652.175781 L 1562.113281 1647.964844 L 1562.113281 1647.324219 L 1556.367188 1636.214844 C 1556.367188 1636.214844 1555.855469 1633.535156 1555.726562 1632.640625 C 1555.601562 1631.746094 1563.644531 1615.148438 1563.644531 1615.148438 L 1566.453125 1611.703125 L 1588.160156 1590.507812 L 1589.179688 1588.464844 L 1592.117188 1583.867188 L 1610.632812 1563.308594 L 1620.84375 1553.605469 L 1624.546875 1548.5 L 1628.890625 1539.6875 L 1630.550781 1535.089844 L 1638.722656 1524.109375 L 1661.066406 1491.808594 L 1670.640625 1469.335938 L 1672.941406 1462.824219 L 1675.492188 1448.269531 L 1676.132812 1430.773438 L 1674.726562 1412.898438 L 1674.726562 1394.128906 L 1671.664062 1385.449219 L 1671.664062 1376.253906 C 1671.664062 1376.253906 1671.664062 1376.253906 1671.28125 1376.382812 C 1670.898438 1376.511719 1669.492188 1371.53125 1669.492188 1371.53125 L 1665.917969 1363.742188 L 1665.152344 1357.359375 L 1663.234375 1355.441406 L 1662.34375 1353.144531 L 1659.789062 1345.738281 L 1658.382812 1341.015625 L 1656.851562 1333.992188 L 1653.53125 1327.863281 L 1653.53125 1320.328125 L 1652.894531 1315.09375 L 1650.339844 1308.710938 L 1648.679688 1304.625 L 1641.914062 1289.558594 L 1640.636719 1282.917969 L 1639.105469 1275.128906 L 1633.484375 1263.640625 L 1625.316406 1250.359375 L 1625.316406 1245.125 L 1621.101562 1242.316406 L 1620.335938 1238.101562 L 1619.570312 1231.589844 L 1614.589844 1225.71875 L 1614.84375 1219.84375 L 1610.886719 1213.332031 L 1610.886719 1205.414062 L 1611.78125 1196.09375 L 1617.144531 1184.984375 C 1617.144531 1184.984375 1621.867188 1180.390625 1621.867188 1179.878906 L 1621.867188 1180.390625 L 1627.484375 1180.132812 L 1627.996094 1175.539062 L 1628.25 1160.855469 L 1639.871094 1124.71875 L 1642.167969 1117.441406 L 1645.488281 1108.886719 L 1657.363281 1099.820312 L 1662.980469 1093.949219 L 1668.597656 1091.90625 L 1675.621094 1089.863281 L 1679.707031 1089.863281 L 1683.027344 1088.585938 L 1685.835938 1086.289062 L 1685.324219 1079.265625 L 1686.859375 1075.691406 L 1687.625 1072.625 L 1686.601562 1069.050781 L 1687.367188 1066.496094 L 1696.6875 1061.898438 L 1704.859375 1057.304688 C 1704.859375 1057.304688 1712.394531 1051.175781 1713.289062 1051.429688 C 1714.179688 1051.6875 1720.054688 1051.6875 1721.203125 1052.195312 C 1722.351562 1052.707031 1722.351562 1052.707031 1722.351562 1052.707031 L 1725.035156 1054.878906 L 1725.546875 1055.132812 L 1730.398438 1055.132812 L 1733.972656 1051.429688 L 1734.992188 1048.238281 C 1734.992188 1048.238281 1739.207031 1044.152344 1739.589844 1044.023438 C 1739.972656 1043.898438 1744.699219 1043.515625 1744.699219 1043.515625 L 1746.867188 1044.023438 L 1754.273438 1046.960938 L 1757.59375 1048.238281 L 1759.890625 1049.769531 L 1766.277344 1054.496094 L 1766.277344 1053.21875 L 1776.363281 1053.34375 L 1776.492188 1059.859375 L 1785.683594 1066.113281 L 1795.898438 1070.582031 L 1806.113281 1071.222656 L 1811.859375 1072.242188 L 1816.839844 1076.457031 L 1825.648438 1076.96875 L 1828.328125 1078.242188 L 1835.480469 1081.050781 L 1840.84375 1086.542969 L 1848.375 1086.542969 L 1850.800781 1086.03125 L 1857.3125 1088.457031 L 1864.847656 1088.332031 L 1870.082031 1087.820312 L 1877.105469 1088.203125 L 1879.53125 1092.289062 L 1882.722656 1092.417969 L 1887.0625 1089.097656 L 1890.765625 1089.863281 L 1899.195312 1088.585938 L 1903.023438 1087.820312 L 1906.726562 1086.414062 L 1908.769531 1086.542969 L 1909.792969 1088.203125 L 1910.175781 1089.992188 L 1909.535156 1092.035156 L 1910.8125 1093.691406 L 1911.835938 1095.097656 L 1911.835938 1096.375 L 1916.6875 1096.886719 L 1918.730469 1096.246094 L 1923.199219 1092.925781 L 1924.859375 1092.160156 L 1927.410156 1093.820312 L 1928.6875 1095.351562 L 1929.964844 1099.949219 L 1934.945312 1100.207031 L 1937.242188 1101.355469 L 1938.519531 1101.738281 L 1941.585938 1103.015625 L 1955.757812 1103.269531 L 1969.675781 1102.886719 L 1976.570312 1099.695312 L 1977.71875 1099.820312 L 1978.996094 1102.121094 L 1981.292969 1102.246094 L 1984.230469 1100.84375 L 1997 1094.84375 L 2000.957031 1089.480469 L 2006.703125 1087.308594 L 2013.980469 1083.988281 L 2019.726562 1082.328125 L 2026.621094 1081.5625 L 2033.132812 1080.667969 L 2036.960938 1079.777344 L 2038.496094 1078.371094 L 2043.730469 1075.691406 L 2054.199219 1073.136719 L 2056.117188 1071.476562 L 2057.390625 1070.710938 L 2060.199219 1070.199219 L 2064.671875 1069.816406 L 2072.332031 1063.6875 L 2073.226562 1060.878906 L 2088.164062 1053.34375 L 2101.824219 1046.195312 C 2101.824219 1046.195312 2106.292969 1044.664062 2106.421875 1044.152344 C 2106.550781 1043.640625 2111.273438 1039.554688 2111.273438 1039.554688 L 2113.574219 1038.277344 C 2113.574219 1038.277344 2117.273438 1036.492188 2117.53125 1036.363281 C 2117.785156 1036.234375 2122.894531 1032.148438 2122.894531 1032.148438 L 2126.339844 1027.296875 L 2128 1022.957031 L 2135.152344 1006.359375 L 2137.703125 1003.039062 C 2137.703125 1003.039062 2148.683594 995.503906 2148.941406 995.378906 C 2149.195312 995.25 2154.046875 992.1875 2154.046875 992.1875 L 2167.328125 992.1875 L 2169.878906 994.355469 L 2176.519531 995.761719 L 2180.859375 996.527344 L 2199.886719 996.398438 L 2204.867188 995.503906 L 2215.71875 992.1875 L 2225.804688 988.992188 L 2236.148438 988.484375 L 2242.277344 983.375 L 2245.851562 977.246094 L 2250.957031 974.054688 L 2259.128906 973.542969 L 2269.472656 968.4375 L 2277.132812 968.4375 L 2281.347656 967.414062 L 2294.242188 962.050781 L 2322.332031 962.050781 L 2328.71875 963.710938 L 2336.890625 967.289062 L 2344.550781 971.5 L 2348.890625 970.992188 L 2355.785156 975.203125 L 2361.019531 979.035156 L 2369.320312 980.949219 L 2376.597656 982.863281 L 2381.707031 983.757812 L 2389.113281 983.886719 L 2394.855469 980.054688 L 2410.691406 979.929688 L 2415.667969 979.035156 L 2426.265625 978.777344 L 2432.269531 986.3125 L 2437.246094 991.292969 L 2439.289062 992.1875 L 2444.652344 992.824219 L 2442.484375 996.144531 L 2432.140625 1003.292969 L 2432.523438 1004.699219 C 2432.523438 1004.699219 2439.035156 1013.636719 2439.035156 1013.890625 C 2439.035156 1014.148438 2437.375 1016.445312 2437.375 1016.445312 L 2426.140625 1017.722656 L 2429.332031 1021.425781 L 2432.523438 1022.0625 C 2432.523438 1022.0625 2432.777344 1023.980469 2433.289062 1024.488281 C 2433.800781 1025 2434.183594 1026.660156 2434.183594 1026.660156 L 2432.777344 1028.957031 L 2432.269531 1030.492188 L 2433.035156 1039.9375 L 2435.84375 1043.257812 L 2434.695312 1047.21875 L 2435.585938 1051.046875 L 2436.863281 1053.472656 L 2436.992188 1056.28125 L 2433.160156 1061.132812 L 2433.035156 1067.390625 L 2433.800781 1070.964844 L 2434.3125 1072.625 L 2435.714844 1071.222656 L 2438.015625 1061.390625 L 2438.398438 1058.199219 L 2441.078125 1056.15625 L 2440.949219 1051.175781 L 2440.441406 1040.320312 L 2444.527344 1031 L 2444.527344 1036.621094 L 2450.78125 1027.9375 L 2451.675781 1024.488281 L 2457.039062 1021.296875 L 2465.722656 1022.191406 L 2469.933594 1018.105469 L 2471.210938 1019.636719 L 2469.296875 1024.363281 L 2469.167969 1029.085938 L 2470.574219 1029.980469 L 2472.488281 1030.746094 L 2473.125 1035.085938 L 2476.320312 1039.429688 L 2477.210938 1043.257812 L 2478.871094 1049.386719 L 2480.019531 1049.261719 L 2480.660156 1048.621094 L 2480.53125 1047.472656 L 2476.957031 1039.683594 L 2477.210938 1035.214844 L 2477.59375 1029.722656 L 2480.019531 1029.085938 L 2481.554688 1028.066406 L 2482.0625 1026.023438 L 2483.722656 1022.191406 L 2489.085938 1016.191406 L 2488.960938 1013.382812 L 2487.554688 1012.871094 L 2487.300781 1015.550781 L 2484.488281 1019 L 2481.9375 1020.785156 L 2480.789062 1018.617188 L 2480.148438 1017.46875 L 2480.277344 1016.191406 L 2481.425781 1013.382812 L 2482.957031 1010.828125 L 2483.597656 1008.527344 L 2486.277344 1007.253906 L 2489.214844 1007.253906 L 2492.277344 1001.890625 L 2492.152344 999.335938 L 2491.640625 998.1875 L 2489.851562 997.421875 L 2489.214844 991.035156 L 2487.042969 991.417969 L 2485.257812 993.207031 L 2484.875 999.335938 L 2484.617188 1001.25 L 2484.746094 1003.292969 L 2484.488281 1006.230469 L 2481.9375 1006.230469 L 2472.105469 1000.101562 L 2471.847656 998.824219 L 2472.742188 997.421875 L 2474.402344 996.527344 L 2476.0625 998.441406 L 2477.59375 998.824219 L 2480.019531 996.398438 L 2480.914062 994.738281 L 2480.789062 992.953125 L 2479.894531 991.164062 L 2475.933594 986.695312 L 2473.765625 984.398438 L 2476.445312 981.460938 L 2477.976562 979.800781 L 2480.148438 978.140625 L 2482.445312 976.480469 L 2488.703125 974.4375 L 2491.128906 974.054688 L 2493.683594 972.648438 L 2495.855469 972.394531 L 2501.472656 966.523438 L 2506.195312 966.394531 L 2507.726562 969.332031 L 2512.453125 975.714844 L 2514.367188 978.269531 L 2515.132812 981.714844 L 2516.667969 983.246094 L 2517.941406 984.90625 L 2518.070312 989.632812 L 2521.902344 990.398438 L 2523.816406 993.078125 L 2524.453125 995.25 L 2525.988281 996.527344 L 2528.15625 999.207031 L 2533.902344 1006.996094 L 2542.585938 1018.617188 L 2546.289062 1022.320312 L 2548.074219 1024.488281 L 2548.714844 1025.382812 L 2549.992188 1025.382812 L 2553.3125 1025.511719 L 2554.332031 1023.339844 L 2556.375 1022.703125 L 2558.035156 1022.191406 L 2559.824219 1022.191406 L 2563.015625 1024.234375 L 2566.972656 1027.808594 L 2566.972656 1031 L 2558.929688 1033.683594 L 2558.929688 1035.46875 L 2559.949219 1037.769531 L 2561.484375 1037.769531 L 2565.441406 1042.875 L 2570.039062 1042.875 L 2572.972656 1044.664062 L 2572.972656 1054.113281 L 2574.25 1056.792969 L 2579.359375 1067.644531 L 2581.273438 1074.15625 L 2588.808594 1081.179688 L 2595.445312 1087.4375 L 2600.425781 1090.882812 L 2610.640625 1102.632812 L 2620.089844 1102.375 L 2626.984375 1107.226562 L 2632.089844 1108.886719 L 2636.175781 1110.417969 L 2646.902344 1117.699219 L 2655.328125 1124.976562 L 2656.988281 1131.996094 L 2658.90625 1136.082031 L 2668.863281 1144.253906 L 2671.546875 1145.53125 L 2674.863281 1147.066406 L 2686.867188 1162.898438 L 2690.570312 1164.046875 L 2696.1875 1165.195312 L 2701.421875 1162.898438 L 2707.933594 1168.898438 L 2713.550781 1172.34375 L 2719.171875 1184.859375 L 2725.683594 1185.496094 L 2730.277344 1187.15625 L 2737.175781 1195.074219 L 2737.175781 1196.222656 L 2739.089844 1196.988281 L 2744.453125 1200.945312 L 2746.367188 1202.988281 L 2750.070312 1203.371094 L 2754.285156 1199.285156 L 2755.175781 1199.285156 L 2758.242188 1201.203125 L 2759.261719 1201.203125 L 2760.027344 1199.925781 L 2773.691406 1199.667969 L 2776.246094 1199.160156 L 2779.820312 1199.03125 Z M 2783.011719 1199.160156 " fill-opacity="1" fill-rule="nonzero"/></g><path fill="#52d3d8" d="M 3004.03125 1086.414062 L 3005.308594 1087.054688 L 3006.585938 1088.585938 L 3008.371094 1088.585938 L 3011.691406 1083.863281 L 3012.328125 1081.820312 L 3013.988281 1079.136719 L 3015.523438 1074.539062 L 3016.289062 1071.730469 L 3016.925781 1070.710938 L 3017.308594 1069.304688 L 3018.714844 1066.371094 L 3019.863281 1063.175781 L 3021.011719 1061.515625 L 3021.011719 1059.21875 L 3019.351562 1059.21875 L 3016.671875 1062.285156 L 3010.925781 1064.964844 L 3010.542969 1066.242188 L 3011.308594 1067.136719 L 3011.691406 1069.816406 L 3012.457031 1070.839844 L 3010.414062 1072.882812 L 3007.605469 1075.5625 C 3007.605469 1075.5625 3006.457031 1076.839844 3005.945312 1077.476562 C 3004.667969 1078.882812 3004.667969 1078.882812 3004.667969 1078.882812 L 3004.03125 1081.4375 Z M 3004.03125 1086.414062 " fill-opacity="1" fill-rule="nonzero"/></svg>